<?xml version="1.0" encoding="utf-8"?>
<!-- Generator: Adobe Illustrator 23.0.4, SVG Export Plug-In . SVG Version: 6.00 Build 0)  -->
<svg version="1.1" id="Layer_1" xmlns="http://www.w3.org/2000/svg" xmlns:xlink="http://www.w3.org/1999/xlink" x="0px" y="0px"
	 viewBox="0 0 612 792" style="enable-background:new 0 0 612 792;" xml:space="preserve">
<style type="text/css">
	.st0{opacity:0.05;}
	.st1{fill:url(#SVGID_1_);}
	.st2{fill:url(#SVGID_2_);}
	.st3{fill:url(#SVGID_3_);}
	.st4{fill:url(#SVGID_4_);}
	.st5{fill:url(#SVGID_5_);}
	.st6{fill:url(#SVGID_6_);}
	.st7{fill:url(#SVGID_7_);}
	.st8{fill:url(#SVGID_8_);}
</style>
<g class="st0">
	
		<linearGradient id="SVGID_1_" gradientUnits="userSpaceOnUse" x1="-1070.1932" y1="85.382" x2="-1070.1932" y2="880.0835" gradientTransform="matrix(-1 0 0 -1 -763.9365 856.9766)">
		<stop  offset="0" style="stop-color:#404041"/>
		<stop  offset="0.7816" style="stop-color:#292627"/>
		<stop  offset="0.9539" style="stop-color:#231F20"/>
	</linearGradient>
	<path class="st1" d="M352.28,565.32c-1.46-3.49-2.68-6.94-4.05-10.54c-14.02,14.41-27.86,28.63-42.18,43.41
		c-14.38-14.77-28.24-29.02-42.13-43.3c-0.3,0.49-0.45,0.75-0.6,1.02c-10.02,29.04-25.63,54.51-48.19,75.61
		c-0.86,0.82-1.14,3.32-0.72,4.4c2.95,6.33,5.87,12.47,9.16,18.49c23.04,42.95,51.46,82.34,81.29,120.65
		c0.34,0.43,0.78,0.72,1.24,1.18c0.97-1.21,1.78-2.04,2.5-2.95c15.98-21.85,32.26-43.59,47.78-65.91
		c15.46-22.18,29.15-45.39,40.76-69.83c1.13-2.44,2.15-4.33-0.58-6.83C376.64,612.43,362.31,590.39,352.28,565.32z"/>
	
		<linearGradient id="SVGID_2_" gradientUnits="userSpaceOnUse" x1="-1070.1284" y1="85.4377" x2="-1070.1284" y2="880.085" gradientTransform="matrix(-1 0 0 -1 -763.9365 856.9766)">
		<stop  offset="0" style="stop-color:#404041"/>
		<stop  offset="0.7816" style="stop-color:#292627"/>
		<stop  offset="0.9539" style="stop-color:#231F20"/>
	</linearGradient>
	<path class="st2" d="M207.29,434.19c4.07,8.6,7.86,17.31,12.68,25.44c14.43,25.32,32.5,48.02,51.6,70.01
		c11.08,12.63,22.55,24.78,34.79,38.15c1.42-1.87,2.29-3.45,3.51-4.73c20.34-20.98,39.71-42.86,57.27-66.2
		c14.71-19.48,28.31-39.65,37.75-62.38c1.05-2.48,0.58-4.06-0.86-6.25c-8.95-13.34-17.79-26.69-26.28-40.27
		c-3.33-5.33-5.69-11.35-8.48-17.22c-10.38,11.67-20.25,23.41-30.77,34.53c-10.67,11.1-21.9,21.51-33.66,33.03
		c-20.54-22.11-41.55-44.46-62.4-66.92c-8.99,20.57-20.52,39.95-34.62,57.76C206.92,430.27,206.6,432.86,207.29,434.19z"/>
	
		<linearGradient id="SVGID_3_" gradientUnits="userSpaceOnUse" x1="-1233.954" y1="85.2947" x2="-1233.954" y2="880.2149" gradientTransform="matrix(-1 0 0 -1 -763.9365 856.9766)">
		<stop  offset="0" style="stop-color:#404041"/>
		<stop  offset="0.7816" style="stop-color:#292627"/>
		<stop  offset="0.9539" style="stop-color:#231F20"/>
	</linearGradient>
	<path class="st3" d="M521.21,332.96c-25.69,2.4-50.6-1.27-74.89-9.5c-11.43-4.02-22.45-9.02-34.03-13.55
		c0.03-0.04-0.18,0.23-0.51,0.68c-8.31,12.4-16.74,24.89-24.94,37.48c-0.83,1.27-1.04,3.59-0.5,5.1
		c12.98,34.49,32.54,64.55,61.23,88.08c28,23.02,60.42,34.71,96.78,35.42c3.58,0.05,5.34-1.11,5.77-4.75
		c1.24-12.31,3.86-24.61,3.86-36.85c0.01-34.65-9.52-67.07-25.01-97.9C527.19,333.45,525.04,332.6,521.21,332.96z"/>
	
		<linearGradient id="SVGID_4_" gradientUnits="userSpaceOnUse" x1="-905.4395" y1="85.3252" x2="-905.4395" y2="880.1661" gradientTransform="matrix(-1 0 0 -1 -763.9365 856.9766)">
		<stop  offset="0" style="stop-color:#404041"/>
		<stop  offset="0.7816" style="stop-color:#292627"/>
		<stop  offset="0.9539" style="stop-color:#231F20"/>
	</linearGradient>
	<path class="st4" d="M222.33,362.3c3.94-8.59,3.77-14.71-2.41-22.17c-7.76-9.44-13.8-20.15-20.78-30.76
		c-35.07,17.85-71.62,27.08-110.83,23.63c-1.43-0.09-3.54,1.33-4.23,2.61c-3.62,7.52-7.47,14.99-10.43,22.69
		c-14.53,36.58-19.91,74.17-11.92,113.23c0.81,3.88,2.44,5.22,6.3,5.16c30.01-0.69,57.64-8.84,82.68-25.36
		C183.98,429.39,206.2,398.28,222.33,362.3z"/>
	
		<linearGradient id="SVGID_5_" gradientUnits="userSpaceOnUse" x1="-945.2754" y1="85.3815" x2="-945.2754" y2="880.1683" gradientTransform="matrix(-1 0 0 -1 -763.9365 856.9766)">
		<stop  offset="0" style="stop-color:#404041"/>
		<stop  offset="0.7816" style="stop-color:#292627"/>
		<stop  offset="0.9539" style="stop-color:#231F20"/>
	</linearGradient>
	<path class="st5" d="M244.51,531.93c-7.59-9.96-15.57-19.62-23.08-29.71c-12.22-16.6-23.06-34.01-32.09-53.25
		c-1.38,1.3-2.35,2.13-3.48,2.99c-18.48,16.64-39.38,29.47-63.26,37.17c-4.31,1.39-5.39,3.57-5.54,7.7
		c-0.78,19.73-0.11,39.37,3.52,58.82c5.77,30.41,17.01,58.46,36.26,82.91c2.12,2.78,3.88,3.27,7.2,1.61
		c43.03-21.87,69.25-56.89,81.72-102.87C246.23,535.71,245.52,533.29,244.51,531.93z"/>
	
		<linearGradient id="SVGID_6_" gradientUnits="userSpaceOnUse" x1="-1195.0228" y1="85.3775" x2="-1195.0228" y2="880.1223" gradientTransform="matrix(-1 0 0 -1 -763.9365 856.9766)">
		<stop  offset="0" style="stop-color:#404041"/>
		<stop  offset="0.7816" style="stop-color:#292627"/>
		<stop  offset="0.9539" style="stop-color:#231F20"/>
	</linearGradient>
	<path class="st6" d="M491.21,489.9c-21.62-7.04-41.1-17.94-58.61-32.34c-3.17-2.76-6.35-5.45-9.7-8.38
		c-0.54,0.8-0.95,1.21-1.12,1.71c-13.07,27.54-30.46,52.19-49.94,75.31c-5.45,6.4-6.09,11.6-3.51,19.13
		c13.98,42.14,39.48,74.37,79.39,94.74c3.21,1.66,5.38,1.78,7.51-1.62c5.89-9.18,12.59-17.93,17.65-27.64
		c19-36.77,24.6-76.24,21.7-117.21C494.51,492.34,492.67,490.38,491.21,489.9z"/>
	
		<linearGradient id="SVGID_7_" gradientUnits="userSpaceOnUse" x1="-795.202" y1="61.798" x2="-795.202" y2="895.4357" gradientTransform="matrix(-1 0 0 -1 -763.9365 856.9766)">
		<stop  offset="0" style="stop-color:#404041"/>
		<stop  offset="0.7816" style="stop-color:#292627"/>
		<stop  offset="0.9539" style="stop-color:#231F20"/>
	</linearGradient>
	<path class="st7" d="M31.53,289.7C30.75,289.21,30.91,289.41,31.53,289.7L31.53,289.7z"/>
	
		<linearGradient id="SVGID_8_" gradientUnits="userSpaceOnUse" x1="-1070.202" y1="85.3848" x2="-1070.202" y2="880.146" gradientTransform="matrix(-1 0 0 -1 -763.9365 856.9766)">
		<stop  offset="0" style="stop-color:#404041"/>
		<stop  offset="0.7816" style="stop-color:#292627"/>
		<stop  offset="0.9539" style="stop-color:#231F20"/>
	</linearGradient>
	<path class="st8" d="M91.28,311.03c30.41,2.93,59.17-3.42,86.83-15.77c10.5-4.76,20.52-10.1,29.96-16.18
		c24.29,40.42,66.1,94.93,98.44,128.43c32.71-33.76,77.52-85.64,101.71-125.97c25.87,16.57,55.34,26.51,88.1,29.51
		c32.44,3.16,53.85-4.64,81.81-21.17c2.76-1.65,3.6-3.32,2.22-6.26c-4.44-9.66-87.97-150.96-255.91-161.1l3.3-85.01
		c0-12.04-9.73-21.77-21.73-21.77s-21.77,9.73-21.77,21.77l3.33,84.83C112.61,130.95,43.7,265.41,35.54,289.16
		c-0.61,1.85-2.93,1.04-4.01,0.55c0.07,0.04,0.13,0.08,0.23,0.13C52.03,301.9,67.92,309,91.28,311.03z"/>
</g>
</svg>
