<?xml version="1.0" encoding="utf-8"?>
<!-- Generator: Adobe Illustrator 23.0.3, SVG Export Plug-In . SVG Version: 6.00 Build 0)  -->
<svg version="1.1" id="Layer_1" xmlns="http://www.w3.org/2000/svg" xmlns:xlink="http://www.w3.org/1999/xlink" x="0px" y="0px"
	 viewBox="0 0 1000 1000" style="enable-background:new 0 0 1000 1000;" xml:space="preserve">
<style type="text/css">
	.st0{fill:#7E69AF;}
	.st1{fill:#FFFFFF;}
	.st2{clip-path:url(#SVGID_2_);}
	.st3{clip-path:url(#SVGID_4_);fill:#FFFFFF;}
	.st4{clip-path:url(#SVGID_6_);}
	.st5{clip-path:url(#SVGID_8_);fill:#FFFFFF;}
</style>
<rect class="st0" width="1000" height="1000"/>
<path class="st1" d="M869.35,396.01c-7.21-2.61-16.77-5.83-28.09-9c-55.65-15.57-101.02-15.02-127.67-14.49
	c0,0-60.33,1.19-118.01,15.18c-3.22,0.79-15.27,3.51-39.34,8.97c-11.08,2.51-16.44,3.71-23.81,4.83
	c-13.47,2.04-24.73,2.43-32.43,2.42c-7.7,0.01-18.96-0.37-32.43-2.42c-7.37-1.12-12.73-2.32-23.81-4.83
	c-24.07-5.47-36.12-8.18-39.34-8.97c-57.68-14-118.01-15.18-118.01-15.18c-26.65-0.52-72.02-1.08-127.67,14.49
	c-11.32,3.17-20.88,6.39-28.09,9c-2.19,0.8-3.65,2.87-3.65,5.21v37.51c0,2.34,0.95,4.61,2.7,6.17c1.43,1.27,2.86,2.86,4.23,4.58
	c5.88,7.37,9.74,16.16,11.58,25.41c10.79,54.2,25.89,84.19,25.89,84.19c5.52,11.23,17.31,31.1,39.96,45.66
	c14.73,9.45,27.81,12.68,42.17,16.22c14.33,3.53,41.35,9.91,76.13,4.83c14.42-2.11,45.66-7.04,76.84-30.02
	c7.13-5.26,13.34-10.77,18.75-16.31c16.85-17.25,29.13-38.42,36.48-61.39l18.62-58.25c1.56-4.39,3.59-9.87,8.97-13.11
	c4.18-2.51,8.49-2.55,10.7-2.42c2.21-0.14,6.51-0.1,10.7,2.42c5.38,3.24,7.41,8.72,8.97,13.11l18.62,58.25
	c7.34,22.97,19.63,44.14,36.48,61.39c5.41,5.54,11.61,11.06,18.75,16.31c31.18,22.98,62.41,27.91,76.84,30.02
	c34.78,5.08,61.81-1.3,76.13-4.83c14.35-3.53,27.44-6.76,42.17-16.22c22.65-14.56,34.44-34.42,39.96-45.66
	c0,0,15.1-29.99,25.89-84.19c1.84-9.25,5.7-18.04,11.58-25.41c1.37-1.72,2.81-3.31,4.23-4.58c1.75-1.56,2.7-3.82,2.7-6.17v-37.51
	C873,398.89,871.54,396.81,869.35,396.01z M445.83,461.93c-2.15,27.66-7.3,93.63-58.66,125.76c-7.99,5-14.38,7.47-21.39,10.19
	c-47.67,18.49-118.7,21.26-154.58-17.67c-10.85-11.77-16-24.65-20.01-34.67c-9.16-22.88-10.32-43.67-11.73-68.65
	c-0.61-10.83-0.9-16.37,0-22.43c0.99-6.76,4.71-31.97,25.88-45.55c2.9-1.86,7.04-4.09,12.49-5.77c3.48-1.08,13.87-2.35,17.5-2.69
	c22.26-2.19,117.87-10.23,167.72,10.5c11.48,4.78,35.02,14.56,41.41,35.35C446.39,452.62,446.13,457.99,445.83,461.93z
	 M820.55,476.89c-1.41,24.98-2.57,45.77-11.73,68.65c-4.02,10.02-9.16,22.9-20.01,34.67c-35.89,38.92-106.91,36.16-154.58,17.67
	c-7.01-2.72-13.4-5.19-21.39-10.19c-51.36-32.13-56.51-98.1-58.66-125.76c-0.3-3.93-0.57-9.3,1.38-15.62
	c6.39-20.79,29.92-30.57,41.41-35.35c49.85-20.73,145.46-12.7,167.72-10.5c3.63,0.35,14.02,1.61,17.5,2.69
	c5.45,1.68,9.59,3.91,12.49,5.77c21.17,13.58,24.89,38.78,25.88,45.55C821.45,460.52,821.16,466.05,820.55,476.89z"/>
<g id="Artwork_1_2_">
	<g>
		<defs>
			<rect id="SVGID_1_" x="635" y="408.68" width="132.96" height="190.67"/>
		</defs>
		<clipPath id="SVGID_2_">
			<use xlink:href="#SVGID_1_"  style="overflow:visible;"/>
		</clipPath>
		<g class="st2">
			<defs>
				<rect id="SVGID_3_" x="635" y="408.68" width="132.96" height="190.67"/>
			</defs>
			<clipPath id="SVGID_4_">
				<use xlink:href="#SVGID_3_"  style="overflow:visible;"/>
			</clipPath>
			<path class="st3" d="M712.67,546.47c-0.35-0.88-0.65-1.74-0.98-2.64c-3.39,3.61-6.73,7.18-10.2,10.88
				c-3.48-3.7-6.83-7.28-10.18-10.86c-0.07,0.12-0.11,0.19-0.15,0.26c-2.42,7.28-6.2,13.67-11.65,18.96
				c-0.21,0.21-0.28,0.83-0.18,1.1c0.71,1.59,1.42,3.13,2.22,4.64c5.57,10.77,12.44,20.64,19.65,30.25c0.08,0.11,0.19,0.18,0.3,0.3
				c0.23-0.3,0.43-0.51,0.6-0.74c3.86-5.48,7.8-10.93,11.55-16.53c3.74-5.56,7.05-11.38,9.85-17.51c0.27-0.61,0.52-1.09-0.14-1.71
				C718.56,558.28,715.09,552.75,712.67,546.47"/>
			<path class="st3" d="M677.62,513.59c0.98,2.16,1.9,4.34,3.07,6.38c3.49,6.35,7.86,12.04,12.47,17.55
				c2.68,3.17,5.45,6.21,8.41,9.57c0.34-0.47,0.55-0.86,0.85-1.19c4.92-5.26,9.6-10.75,13.85-16.6c3.56-4.89,6.84-9.94,9.13-15.64
				c0.25-0.62,0.14-1.02-0.21-1.57c-2.16-3.34-4.3-6.69-6.35-10.1c-0.81-1.34-1.38-2.85-2.05-4.32c-2.51,2.93-4.9,5.87-7.44,8.66
				c-2.58,2.78-5.3,5.39-8.14,8.28c-4.97-5.54-10.04-11.15-15.08-16.78c-2.17,5.16-4.96,10.02-8.37,14.48
				C677.53,512.6,677.45,513.25,677.62,513.59"/>
			<path class="st3" d="M753.51,488.21c-6.21,0.6-12.23-0.32-18.1-2.38c-2.76-1.01-5.43-2.26-8.23-3.4
				c0.01-0.01-0.04,0.06-0.12,0.17c-2.01,3.11-4.05,6.24-6.03,9.4c-0.2,0.32-0.25,0.9-0.12,1.28c3.14,8.65,7.87,16.18,14.8,22.08
				c6.77,5.77,14.61,8.7,23.4,8.88c0.87,0.01,1.29-0.28,1.4-1.19c0.3-3.09,0.93-6.17,0.93-9.24c0-8.69-2.3-16.82-6.05-24.54
				C754.95,488.33,754.43,488.12,753.51,488.21"/>
			<path class="st3" d="M681.25,495.56c0.95-2.15,0.91-3.69-0.58-5.56c-1.88-2.37-3.34-5.05-5.02-7.71
				c-8.48,4.48-17.32,6.79-26.79,5.92c-0.35-0.02-0.86,0.33-1.02,0.65c-0.87,1.89-1.81,3.76-2.52,5.69
				c-3.51,9.17-4.81,18.6-2.88,28.39c0.2,0.97,0.59,1.31,1.52,1.29c7.26-0.17,13.93-2.22,19.99-6.36
				C671.98,512.38,677.35,504.58,681.25,495.56"/>
			<path class="st3" d="M686.61,538.09c-1.83-2.5-3.76-4.92-5.58-7.45c-2.95-4.16-5.58-8.53-7.76-13.35
				c-0.33,0.33-0.57,0.53-0.84,0.75c-4.47,4.17-9.52,7.39-15.29,9.32c-1.04,0.35-1.3,0.89-1.34,1.93
				c-0.19,4.95-0.03,9.87,0.85,14.75c1.4,7.62,4.11,14.66,8.77,20.79c0.51,0.7,0.94,0.82,1.74,0.4
				c10.4-5.48,16.74-14.26,19.76-25.79C687.03,539.04,686.86,538.43,686.61,538.09"/>
			<path class="st3" d="M746.26,527.56c-5.23-1.77-9.94-4.5-14.17-8.11c-0.77-0.69-1.54-1.37-2.34-2.1c-0.13,0.2-0.23,0.3-0.27,0.43
				c-3.16,6.91-7.36,13.09-12.07,18.88c-1.32,1.61-1.47,2.91-0.85,4.79c3.38,10.56,9.54,18.65,19.19,23.75
				c0.78,0.42,1.3,0.45,1.82-0.41c1.42-2.3,3.04-4.5,4.27-6.93c4.59-9.22,5.95-19.12,5.25-29.39
				C747.05,528.17,746.61,527.68,746.26,527.56"/>
			<path class="st3" d="M635.13,477.36C634.94,477.24,634.98,477.29,635.13,477.36"/>
			<path class="st3" d="M649.57,482.71c7.35,0.73,14.3-0.86,20.99-3.95c2.54-1.19,4.96-2.53,7.24-4.06
				c5.87,10.14,15.98,23.8,23.8,32.2c7.91-8.46,18.74-21.47,24.59-31.58c6.25,4.15,13.38,6.65,21.3,7.4
				c7.84,0.79,13.02-1.16,19.78-5.31c0.67-0.41,0.87-0.83,0.54-1.57c-1.07-2.42-21.27-37.85-61.87-40.39l0.8-21.32
				c0-3.02-2.35-5.46-5.25-5.46s-5.26,2.44-5.26,5.46l0.81,21.27c-42.29,2.15-58.95,35.87-60.93,41.82
				c-0.15,0.46-0.71,0.26-0.97,0.14c0.02,0.01,0.03,0.02,0.06,0.03C640.08,480.42,643.92,482.2,649.57,482.71"/>
		</g>
	</g>
</g>
<g id="Artwork_1_3_">
	<g>
		<defs>
			<rect id="SVGID_5_" x="236" y="408.68" width="132.96" height="190.67"/>
		</defs>
		<clipPath id="SVGID_6_">
			<use xlink:href="#SVGID_5_"  style="overflow:visible;"/>
		</clipPath>
		<g class="st4">
			<defs>
				<rect id="SVGID_7_" x="236" y="408.68" width="132.96" height="190.67"/>
			</defs>
			<clipPath id="SVGID_8_">
				<use xlink:href="#SVGID_7_"  style="overflow:visible;"/>
			</clipPath>
			<path class="st5" d="M313.67,546.47c-0.35-0.88-0.65-1.74-0.98-2.64c-3.39,3.61-6.73,7.18-10.2,10.88
				c-3.48-3.7-6.83-7.28-10.18-10.86c-0.07,0.12-0.11,0.19-0.15,0.26c-2.42,7.28-6.2,13.67-11.65,18.96
				c-0.21,0.21-0.28,0.83-0.18,1.1c0.71,1.59,1.42,3.13,2.22,4.64c5.57,10.77,12.44,20.64,19.65,30.25c0.08,0.11,0.19,0.18,0.3,0.3
				c0.23-0.3,0.43-0.51,0.6-0.74c3.86-5.48,7.8-10.93,11.55-16.53c3.74-5.56,7.05-11.38,9.85-17.51c0.27-0.61,0.52-1.09-0.14-1.71
				C319.56,558.28,316.09,552.75,313.67,546.47"/>
			<path class="st5" d="M278.62,513.59c0.98,2.16,1.9,4.34,3.07,6.38c3.49,6.35,7.86,12.04,12.47,17.55
				c2.68,3.17,5.45,6.21,8.41,9.57c0.34-0.47,0.55-0.86,0.85-1.19c4.92-5.26,9.6-10.75,13.85-16.6c3.56-4.89,6.84-9.94,9.13-15.64
				c0.25-0.62,0.14-1.02-0.21-1.57c-2.16-3.34-4.3-6.69-6.35-10.1c-0.81-1.34-1.38-2.85-2.05-4.32c-2.51,2.93-4.9,5.87-7.44,8.66
				c-2.58,2.78-5.3,5.39-8.14,8.28c-4.97-5.54-10.04-11.15-15.08-16.78c-2.17,5.16-4.96,10.02-8.37,14.48
				C278.53,512.6,278.45,513.25,278.62,513.59"/>
			<path class="st5" d="M354.51,488.21c-6.21,0.6-12.23-0.32-18.1-2.38c-2.76-1.01-5.43-2.26-8.23-3.4
				c0.01-0.01-0.04,0.06-0.12,0.17c-2.01,3.11-4.05,6.24-6.03,9.4c-0.2,0.32-0.25,0.9-0.12,1.28c3.14,8.65,7.87,16.18,14.8,22.08
				c6.77,5.77,14.61,8.7,23.4,8.88c0.87,0.01,1.29-0.28,1.4-1.19c0.3-3.09,0.93-6.17,0.93-9.24c0-8.69-2.3-16.82-6.05-24.54
				C355.95,488.33,355.43,488.12,354.51,488.21"/>
			<path class="st5" d="M282.25,495.56c0.95-2.15,0.91-3.69-0.58-5.56c-1.88-2.37-3.34-5.05-5.02-7.71
				c-8.48,4.48-17.32,6.79-26.79,5.92c-0.35-0.02-0.86,0.33-1.02,0.65c-0.87,1.89-1.81,3.76-2.52,5.69
				c-3.51,9.17-4.81,18.6-2.88,28.39c0.2,0.97,0.59,1.31,1.52,1.29c7.26-0.17,13.93-2.22,19.99-6.36
				C272.98,512.38,278.35,504.58,282.25,495.56"/>
			<path class="st5" d="M287.61,538.09c-1.83-2.5-3.76-4.92-5.58-7.45c-2.95-4.16-5.58-8.53-7.76-13.35
				c-0.33,0.33-0.57,0.53-0.84,0.75c-4.47,4.17-9.52,7.39-15.29,9.32c-1.04,0.35-1.3,0.89-1.34,1.93
				c-0.19,4.95-0.03,9.87,0.85,14.75c1.4,7.62,4.11,14.66,8.77,20.79c0.51,0.7,0.94,0.82,1.74,0.4
				c10.4-5.48,16.74-14.26,19.76-25.79C288.03,539.04,287.86,538.43,287.61,538.09"/>
			<path class="st5" d="M347.26,527.56c-5.23-1.77-9.94-4.5-14.17-8.11c-0.77-0.69-1.54-1.37-2.34-2.1c-0.13,0.2-0.23,0.3-0.27,0.43
				c-3.16,6.91-7.36,13.09-12.07,18.88c-1.32,1.61-1.47,2.91-0.85,4.79c3.38,10.56,9.54,18.65,19.19,23.75
				c0.78,0.42,1.3,0.45,1.82-0.41c1.42-2.3,3.04-4.5,4.27-6.93c4.59-9.22,5.95-19.12,5.25-29.39
				C348.05,528.17,347.61,527.68,347.26,527.56"/>
			<path class="st5" d="M236.13,477.36C235.94,477.24,235.98,477.29,236.13,477.36"/>
			<path class="st5" d="M250.57,482.71c7.35,0.73,14.3-0.86,20.99-3.95c2.54-1.19,4.96-2.53,7.24-4.06
				c5.87,10.14,15.98,23.8,23.8,32.2c7.91-8.46,18.74-21.47,24.59-31.58c6.25,4.15,13.38,6.65,21.3,7.4
				c7.84,0.79,13.02-1.16,19.78-5.31c0.67-0.41,0.87-0.83,0.54-1.57c-1.07-2.42-21.27-37.85-61.87-40.39l0.8-21.32
				c0-3.02-2.35-5.46-5.25-5.46c-2.9,0-5.26,2.44-5.26,5.46l0.81,21.27c-42.29,2.15-58.95,35.87-60.93,41.82
				c-0.15,0.46-0.71,0.26-0.97,0.14c0.02,0.01,0.03,0.02,0.06,0.03C241.08,480.42,244.92,482.2,250.57,482.71"/>
		</g>
	</g>
</g>
</svg>
